<mxfile host="Electron" agent="Mozilla/5.0 (Windows NT 10.0; Win64; x64) AppleWebKit/537.36 (KHTML, like Gecko) draw.io/25.0.2 Chrome/128.0.6613.186 Electron/32.2.5 Safari/537.36" version="25.0.2">
  <diagram name="Page-1" id="po45LHE88QqMOUHIm8GM">
    <mxGraphModel dx="538" dy="348" grid="1" gridSize="10" guides="1" tooltips="1" connect="1" arrows="1" fold="1" page="1" pageScale="1" pageWidth="850" pageHeight="1100" math="0" shadow="0">
      <root>
        <mxCell id="0" />
        <mxCell id="1" parent="0" />
        <mxCell id="xy3dnoAFc5WgyjDFL9jQ-1" value="" style="html=1;verticalAlign=bottom;startArrow=circle;startFill=1;endArrow=open;startSize=6;endSize=8;curved=0;rounded=0;entryX=0;entryY=0.5;entryDx=0;entryDy=0;" edge="1" parent="1" target="xy3dnoAFc5WgyjDFL9jQ-3">
          <mxGeometry width="80" relative="1" as="geometry">
            <mxPoint x="260" y="230" as="sourcePoint" />
            <mxPoint x="340" y="230" as="targetPoint" />
          </mxGeometry>
        </mxCell>
        <mxCell id="xy3dnoAFc5WgyjDFL9jQ-2" value="&lt;div style=&quot;&quot;&gt;&lt;span style=&quot;background-color: initial;&quot;&gt;initial&amp;nbsp;&lt;/span&gt;&lt;/div&gt;&lt;div&gt;state&lt;/div&gt;" style="text;html=1;align=center;verticalAlign=middle;whiteSpace=wrap;rounded=0;" vertex="1" parent="1">
          <mxGeometry x="256" y="239" width="32" height="30" as="geometry" />
        </mxCell>
        <mxCell id="xy3dnoAFc5WgyjDFL9jQ-3" value="Command in&amp;nbsp;&lt;div&gt;preparation&lt;/div&gt;" style="rounded=1;whiteSpace=wrap;html=1;fillColor=none;" vertex="1" parent="1">
          <mxGeometry x="350" y="210" width="120" height="40" as="geometry" />
        </mxCell>
        <mxCell id="xy3dnoAFc5WgyjDFL9jQ-5" value="Command in&amp;nbsp;&lt;div&gt;delivery&lt;/div&gt;" style="rounded=1;whiteSpace=wrap;html=1;fillColor=none;" vertex="1" parent="1">
          <mxGeometry x="590" y="210" width="120" height="40" as="geometry" />
        </mxCell>
        <mxCell id="xy3dnoAFc5WgyjDFL9jQ-6" value="" style="endArrow=open;endFill=1;endSize=9;html=1;rounded=0;exitX=0.988;exitY=0.499;exitDx=0;exitDy=0;exitPerimeter=0;" edge="1" parent="1">
          <mxGeometry width="160" relative="1" as="geometry">
            <mxPoint x="469.56000000000006" y="229" as="sourcePoint" />
            <mxPoint x="590" y="230" as="targetPoint" />
          </mxGeometry>
        </mxCell>
        <mxCell id="xy3dnoAFc5WgyjDFL9jQ-7" value="&lt;font style=&quot;font-size: 11px;&quot;&gt;expedition [nbObj&amp;gt;20]&lt;/font&gt;" style="text;html=1;align=center;verticalAlign=middle;whiteSpace=wrap;rounded=0;" vertex="1" parent="1">
          <mxGeometry x="467" y="207" width="123" height="13" as="geometry" />
        </mxCell>
        <mxCell id="xy3dnoAFc5WgyjDFL9jQ-8" value="" style="endArrow=open;endFill=1;endSize=9;html=1;rounded=0;exitX=0.412;exitY=1.005;exitDx=0;exitDy=0;exitPerimeter=0;entryX=0.459;entryY=0.316;entryDx=0;entryDy=0;entryPerimeter=0;" edge="1" parent="1" source="xy3dnoAFc5WgyjDFL9jQ-5" target="xy3dnoAFc5WgyjDFL9jQ-15">
          <mxGeometry width="160" relative="1" as="geometry">
            <mxPoint x="630" y="269" as="sourcePoint" />
            <mxPoint x="680" y="300" as="targetPoint" />
          </mxGeometry>
        </mxCell>
        <mxCell id="xy3dnoAFc5WgyjDFL9jQ-10" value="" style="endArrow=open;endFill=1;endSize=9;html=1;rounded=0;exitX=0.413;exitY=-0.009;exitDx=0;exitDy=0;exitPerimeter=0;entryX=0.379;entryY=0.645;entryDx=0;entryDy=0;entryPerimeter=0;" edge="1" parent="1" target="xy3dnoAFc5WgyjDFL9jQ-13">
          <mxGeometry width="160" relative="1" as="geometry">
            <mxPoint x="640" y="210" as="sourcePoint" />
            <mxPoint x="681" y="175" as="targetPoint" />
          </mxGeometry>
        </mxCell>
        <mxCell id="xy3dnoAFc5WgyjDFL9jQ-13" value="" style="ellipse;html=1;shape=endState;fillColor=#000000;strokeColor=#0008ff;perimeterSpacing=18;strokeWidth=1;" vertex="1" parent="1">
          <mxGeometry x="699" y="130" width="23" height="22" as="geometry" />
        </mxCell>
        <mxCell id="xy3dnoAFc5WgyjDFL9jQ-15" value="" style="ellipse;html=1;shape=endState;fillColor=#000000;strokeColor=#0008ff;perimeterSpacing=18;strokeWidth=1;" vertex="1" parent="1">
          <mxGeometry x="681.25" y="310.5" width="23" height="22" as="geometry" />
        </mxCell>
        <mxCell id="xy3dnoAFc5WgyjDFL9jQ-21" value="command" style="text;html=1;align=left;verticalAlign=middle;whiteSpace=wrap;rounded=0;" vertex="1" parent="1">
          <mxGeometry x="699.5" y="155" width="58.5" height="13" as="geometry" />
        </mxCell>
        <mxCell id="xy3dnoAFc5WgyjDFL9jQ-22" value="delivered" style="text;html=1;align=left;verticalAlign=middle;whiteSpace=wrap;rounded=0;" vertex="1" parent="1">
          <mxGeometry x="701" y="166" width="58.5" height="13" as="geometry" />
        </mxCell>
        <mxCell id="xy3dnoAFc5WgyjDFL9jQ-23" value="command" style="text;html=1;align=left;verticalAlign=middle;whiteSpace=wrap;rounded=0;" vertex="1" parent="1">
          <mxGeometry x="663.5" y="340" width="58.5" height="13" as="geometry" />
        </mxCell>
        <mxCell id="xy3dnoAFc5WgyjDFL9jQ-24" value="Lost" style="text;html=1;align=center;verticalAlign=middle;whiteSpace=wrap;rounded=0;" vertex="1" parent="1">
          <mxGeometry x="662.5" y="331" width="58.5" height="13" as="geometry" />
        </mxCell>
        <mxCell id="xy3dnoAFc5WgyjDFL9jQ-25" value="" style="endArrow=open;endFill=1;endSize=9;html=1;rounded=0;exitX=0.408;exitY=0.998;exitDx=0;exitDy=0;exitPerimeter=0;entryX=0.351;entryY=0.4;entryDx=0;entryDy=0;entryPerimeter=0;" edge="1" parent="1" source="xy3dnoAFc5WgyjDFL9jQ-3" target="xy3dnoAFc5WgyjDFL9jQ-26">
          <mxGeometry width="160" relative="1" as="geometry">
            <mxPoint x="479.56000000000006" y="239" as="sourcePoint" />
            <mxPoint x="440" y="280" as="targetPoint" />
          </mxGeometry>
        </mxCell>
        <mxCell id="xy3dnoAFc5WgyjDFL9jQ-26" value="" style="ellipse;html=1;shape=endState;fillColor=#000000;strokeColor=#0008ff;perimeterSpacing=18;strokeWidth=1;" vertex="1" parent="1">
          <mxGeometry x="480" y="301.5" width="23" height="22" as="geometry" />
        </mxCell>
        <mxCell id="xy3dnoAFc5WgyjDFL9jQ-27" value="Canceled" style="text;html=1;align=center;verticalAlign=middle;whiteSpace=wrap;rounded=0;" vertex="1" parent="1">
          <mxGeometry x="462.25" y="322.5" width="58.5" height="13" as="geometry" />
        </mxCell>
        <mxCell id="xy3dnoAFc5WgyjDFL9jQ-28" value="command" style="text;html=1;align=left;verticalAlign=middle;whiteSpace=wrap;rounded=0;" vertex="1" parent="1">
          <mxGeometry x="464" y="331.5" width="58.5" height="13" as="geometry" />
        </mxCell>
        <mxCell id="xy3dnoAFc5WgyjDFL9jQ-29" value="&lt;font style=&quot;font-size: 9px;&quot;&gt;Delivered [NoProblem]&lt;/font&gt;" style="text;html=1;align=center;verticalAlign=middle;whiteSpace=wrap;rounded=0;rotation=-45;" vertex="1" parent="1">
          <mxGeometry x="606" y="168" width="110" height="13" as="geometry" />
        </mxCell>
        <mxCell id="xy3dnoAFc5WgyjDFL9jQ-31" value="&lt;font style=&quot;font-size: 10px;&quot;&gt;Lost[Problem]&lt;/font&gt;" style="text;html=1;align=center;verticalAlign=middle;whiteSpace=wrap;rounded=0;rotation=45;" vertex="1" parent="1">
          <mxGeometry x="637.5" y="265" width="80" height="21" as="geometry" />
        </mxCell>
        <mxCell id="xy3dnoAFc5WgyjDFL9jQ-33" value="&lt;font style=&quot;font-size: 8px;&quot;&gt;Canceled [nbObj&amp;lt;=20]&lt;/font&gt;" style="text;html=1;align=center;verticalAlign=middle;whiteSpace=wrap;rounded=0;rotation=30;" vertex="1" parent="1">
          <mxGeometry x="408.25" y="266" width="86" height="13" as="geometry" />
        </mxCell>
      </root>
    </mxGraphModel>
  </diagram>
</mxfile>
